<svg xmlns="http://www.w3.org/2000/svg" viewBox="0 0 640 360" preserveAspectRatio="xMidYMid slice" role="img" aria-label="Apartamento de campo (imagen de muestra)">
  <defs>
    <linearGradient id="cs" x1="0" y1="0" x2="0" y2="1"><stop offset="0" stop-color="#cfe3dc"/><stop offset="1" stop-color="#a7c8bd"/></linearGradient>
  </defs>
  <rect width="640" height="360" fill="url(#cs)"/>
  <circle cx="520" cy="80" r="42" fill="#f0e6c2" opacity="0.85"/>
  <path d="M0 250 Q 160 210 320 245 T 640 240 V360 H0 Z" fill="#5fa389" opacity="0.8"/>
  <path d="M0 285 Q 200 250 400 285 T 640 280 V360 H0 Z" fill="#3f8368"/>
  <!-- casa de campo -->
  <g transform="translate(250 165)">
    <rect x="0" y="40" width="140" height="80" fill="#f4efe6"/>
    <polygon points="-12,40 70,-4 152,40" fill="#0e5c4a"/>
    <rect x="20" y="66" width="26" height="26" fill="#9fc3b6"/>
    <rect x="94" y="66" width="26" height="26" fill="#9fc3b6"/>
    <rect x="58" y="80" width="24" height="40" fill="#c9a24b"/>
  </g>
  <!-- árboles -->
  <g fill="#2f6f57"><circle cx="120" cy="250" r="34"/><circle cx="150" cy="255" r="26"/><circle cx="520" cy="255" r="30"/></g>
</svg>
